<svg width="48" height="49" viewBox="0 0 48 49" fill="none" xmlns="http://www.w3.org/2000/svg">
<rect y="0.550049" width="48" height="48" rx="24" fill="#0D0E11"/>
<path d="M31.0266 15.3C32.0422 15.3 32.9016 16.1594 32.9016 17.175V30.925C32.9016 31.9797 32.0422 32.8 31.0266 32.8H25.6359V26.8625H27.9016L28.3313 24.05H25.6359V22.2532C25.6359 21.4719 26.0266 20.7297 27.2375 20.7297H28.4484V18.3469C28.4484 18.3469 27.3547 18.1516 26.2609 18.1516C24.0734 18.1516 22.6281 19.5188 22.6281 21.9407V24.05H20.1672V26.8625H22.6281V32.8H17.2766C16.2219 32.8 15.4016 31.9797 15.4016 30.925V17.175C15.4016 16.1594 16.2219 15.3 17.2766 15.3H31.0266Z" fill="white"/>
</svg>
