<svg width="71" height="71" viewBox="0 0 71 71" fill="none" xmlns="http://www.w3.org/2000/svg">
<g clip-path="url(#clip0_18_330)">
<g clip-path="url(#clip1_18_330)">
<g clip-path="url(#clip2_18_330)">
<path d="M11.61 1.66992H59.21C65.009 1.66992 69.71 6.37093 69.71 12.1699V59.7699C69.71 65.5689 65.009 70.2699 59.21 70.2699H11.61C5.81097 70.2699 1.10996 65.5689 1.10996 59.7699V12.1699C1.10996 6.37093 5.81097 1.66992 11.61 1.66992Z" fill="#17191F" stroke="url(#paint0_linear_18_330)" stroke-width="1.4"/>
</g>
</g>
<g clip-path="url(#clip3_18_330)">
<path d="M35.4101 58.47C47.9899 58.47 58.1879 48.272 58.1879 35.6922C58.1879 23.1124 47.9899 12.9144 35.4101 12.9144C22.8303 12.9144 12.6323 23.1124 12.6323 35.6922C12.6323 48.272 22.8303 58.47 35.4101 58.47Z" stroke="white" stroke-width="3.33333"/>
<path d="M44.4454 44.7271C39.8461 49.3264 34.6356 52.3289 29.9951 53.5222C25.3128 54.7262 21.5387 54.0331 19.3038 51.7982C17.0689 49.5633 16.3758 45.7893 17.5799 41.107C18.7731 36.4666 21.7756 31.256 26.3749 26.6567C30.9742 22.0573 36.1848 19.0549 40.8252 17.8616C45.5076 16.6576 49.2816 17.3507 51.5164 19.5856C53.7513 21.8205 54.4444 25.5946 53.2404 30.2769C52.0472 34.9172 49.0448 40.1278 44.4454 44.7271Z" stroke="white" stroke-width="3.33333"/>
<path d="M44.4449 26.6567C49.0442 31.256 52.0467 36.4666 53.24 41.107C54.444 45.7893 53.7509 49.5633 51.516 51.7982C49.2811 54.0331 45.5071 54.7262 40.8248 53.5222C36.1843 52.3289 30.9738 49.3265 26.3744 44.7271C21.7751 40.1278 18.7726 34.9172 17.5794 30.2768C16.3754 25.5945 17.0685 21.8205 19.3034 19.5856C21.5383 17.3507 25.3123 16.6576 29.9947 17.8616C34.635 19.0549 39.8456 22.0573 44.4449 26.6567Z" stroke="white" stroke-width="3.33333"/>
</g>
</g>
<defs>
<linearGradient id="paint0_linear_18_330" x1="126.01" y1="-59.03" x2="-55.529" y2="44.8461" gradientUnits="userSpaceOnUse">
<stop stop-color="#6857F6"/>
<stop offset="1" stop-color="white" stop-opacity="0"/>
</linearGradient>
<clipPath id="clip0_18_330">
<rect x="0.409912" y="0.969971" width="70" height="70" rx="8" fill="white"/>
</clipPath>
<clipPath id="clip1_18_330">
<rect width="70" height="70" fill="white" transform="translate(0.409912 0.969971)"/>
</clipPath>
<clipPath id="clip2_18_330">
<rect width="70" height="70" fill="white" transform="translate(0.409912 0.969971)"/>
</clipPath>
<clipPath id="clip3_18_330">
<rect width="48.8889" height="50" fill="white" transform="translate(10.9656 10.97)"/>
</clipPath>
</defs>
</svg>
