<svg width="48" height="49" viewBox="0 0 48 49" fill="none" xmlns="http://www.w3.org/2000/svg">
<rect y="0.550049" width="48" height="48" rx="24" fill="#0D0E11"/>
<path d="M24.1516 19.5579C26.6125 19.5579 28.6438 21.5891 28.6438 24.05C28.6438 26.55 26.6125 28.5422 24.1516 28.5422C21.6516 28.5422 19.6594 26.55 19.6594 24.05C19.6594 21.5891 21.6516 19.5579 24.1516 19.5579ZM24.1516 26.9797C25.7531 26.9797 27.0422 25.6907 27.0422 24.05C27.0422 22.4485 25.7531 21.1594 24.1516 21.1594C22.5109 21.1594 21.2219 22.4485 21.2219 24.05C21.2219 25.6907 22.55 26.9797 24.1516 26.9797ZM29.8547 19.4016C29.8547 19.9875 29.3859 20.4563 28.8 20.4563C28.2141 20.4563 27.7453 19.9875 27.7453 19.4016C27.7453 18.8157 28.2141 18.3469 28.8 18.3469C29.3859 18.3469 29.8547 18.8157 29.8547 19.4016ZM32.8234 20.4563C32.9016 21.9016 32.9016 26.2375 32.8234 27.6829C32.7453 29.0891 32.4328 30.3 31.4172 31.3547C30.4016 32.3704 29.1516 32.6829 27.7453 32.761C26.3 32.8391 21.9641 32.8391 20.5188 32.761C19.1125 32.6829 17.9016 32.3704 16.8469 31.3547C15.8313 30.3 15.5188 29.0891 15.4406 27.6829C15.3625 26.2375 15.3625 21.9016 15.4406 20.4563C15.5188 19.05 15.8313 17.8 16.8469 16.7844C17.9016 15.7688 19.1125 15.4563 20.5188 15.3782C21.9641 15.3 26.3 15.3 27.7453 15.3782C29.1516 15.4563 30.4016 15.7688 31.4172 16.7844C32.4328 17.8 32.7453 19.05 32.8234 20.4563ZM30.9484 29.2063C31.4172 28.0735 31.3 25.3391 31.3 24.05C31.3 22.8 31.4172 20.0657 30.9484 18.8938C30.6359 18.1516 30.05 17.5266 29.3078 17.2532C28.1359 16.7844 25.4016 16.9016 24.1516 16.9016C22.8625 16.9016 20.1281 16.7844 18.9953 17.2532C18.2141 17.5657 17.6281 18.1516 17.3156 18.8938C16.8469 20.0657 16.9641 22.8 16.9641 24.05C16.9641 25.3391 16.8469 28.0735 17.3156 29.2063C17.6281 29.9875 18.2141 30.5735 18.9953 30.886C20.1281 31.3547 22.8625 31.2375 24.1516 31.2375C25.4016 31.2375 28.1359 31.3547 29.3078 30.886C30.05 30.5735 30.675 29.9875 30.9484 29.2063Z" fill="white"/>
</svg>
