<svg width="48" height="49" viewBox="0 0 48 49" fill="none" xmlns="http://www.w3.org/2000/svg">
<rect y="0.550049" width="48" height="48" rx="24" fill="#0D0E11"/>
<path d="M31.6516 15.3C32.3156 15.3 32.9016 15.886 32.9016 16.5891V31.55C32.9016 32.2532 32.3156 32.8 31.6516 32.8H16.6125C15.9484 32.8 15.4016 32.2532 15.4016 31.55V16.5891C15.4016 15.886 15.9484 15.3 16.6125 15.3H31.6516ZM20.675 30.3V21.9797H18.0969V30.3H20.675ZM19.3859 20.8079C20.2063 20.8079 20.8703 20.1438 20.8703 19.3235C20.8703 18.5032 20.2063 17.8 19.3859 17.8C18.5266 17.8 17.8625 18.5032 17.8625 19.3235C17.8625 20.1438 18.5266 20.8079 19.3859 20.8079ZM30.4016 30.3V25.7297C30.4016 23.5032 29.8938 21.7454 27.2766 21.7454C26.0266 21.7454 25.1672 22.4485 24.8156 23.1125H24.7766V21.9797H22.3156V30.3H24.8938V26.1985C24.8938 25.1047 25.0891 24.05 26.4563 24.05C27.7844 24.05 27.7844 25.3 27.7844 26.2375V30.3H30.4016Z" fill="white"/>
</svg>
