<svg width="21" height="21" viewBox="0 0 21 21" fill="none" xmlns="http://www.w3.org/2000/svg">
<mask id="mask0_78_352" style="mask-type:luminance" maskUnits="userSpaceOnUse" x="0" y="0" width="21" height="21">
<path d="M20.1602 0.370003H0.160156V20.37H20.1602V0.370003Z" fill="white"/>
</mask>
<g mask="url(#mask0_78_352)">
<path d="M1.82666 10.37H18.4934M1.82666 10.37C1.82666 14.9724 5.55762 18.7034 10.16 18.7034M1.82666 10.37C1.82666 5.76765 5.55762 2.03669 10.16 2.03669M18.4934 10.37C18.4934 14.9724 14.7624 18.7034 10.16 18.7034M18.4934 10.37C18.4934 5.76765 14.7624 2.03669 10.16 2.03669M10.16 18.7034C12.2444 16.4214 13.429 13.46 13.4934 10.37C13.429 7.28005 12.2444 4.31865 10.16 2.03669M10.16 18.7034C8.07559 16.4214 6.89103 13.46 6.82666 10.37C6.89103 7.28005 8.07559 4.31865 10.16 2.03669" stroke="white" stroke-width="1.5" stroke-linecap="round" stroke-linejoin="round"/>
</g>
</svg>
