<svg width="70" height="71" viewBox="0 0 70 71" fill="none" xmlns="http://www.w3.org/2000/svg">
<g clip-path="url(#clip0_18_199)">
<g clip-path="url(#clip1_18_199)">
<g clip-path="url(#clip2_18_199)">
<path d="M11.2001 1.66992H58.8C64.599 1.66992 69.3 6.37093 69.3 12.1699V59.7699C69.3 65.5689 64.599 70.2699 58.8 70.2699H11.2001C5.40106 70.2699 0.70005 65.5689 0.70005 59.7699V12.1699C0.70005 6.37093 5.40106 1.66992 11.2001 1.66992Z" fill="#17191F" stroke="url(#paint0_linear_18_199)" stroke-width="1.4"/>
</g>
</g>
<g clip-path="url(#clip3_18_199)">
<path d="M35.0002 58.47C47.58 58.47 57.778 48.272 57.778 35.6922C57.778 23.1124 47.58 12.9144 35.0002 12.9144C22.4204 12.9144 12.2224 23.1124 12.2224 35.6922C12.2224 48.272 22.4204 58.47 35.0002 58.47Z" stroke="white" stroke-width="3.33333"/>
<path d="M44.0355 44.7271C39.4362 49.3264 34.2256 52.3289 29.5852 53.5222C24.9029 54.7262 21.1288 54.0331 18.8939 51.7982C16.659 49.5633 15.9659 45.7893 17.17 41.107C18.3632 36.4666 21.3657 31.256 25.965 26.6567C30.5643 22.0573 35.7749 19.0549 40.4153 17.8616C45.0976 16.6576 48.8716 17.3507 51.1065 19.5856C53.3414 21.8205 54.0345 25.5946 52.8305 30.2769C51.6373 34.9172 48.6349 40.1278 44.0355 44.7271Z" stroke="white" stroke-width="3.33333"/>
<path d="M44.035 26.6567C48.6343 31.256 51.6368 36.4666 52.8301 41.107C54.0341 45.7893 53.341 49.5633 51.1061 51.7982C48.8712 54.0331 45.0972 54.7262 40.4149 53.5222C35.7744 52.3289 30.5639 49.3265 25.9645 44.7271C21.3652 40.1278 18.3627 34.9172 17.1695 30.2768C15.9654 25.5945 16.6585 21.8205 18.8934 19.5856C21.1283 17.3507 24.9024 16.6576 29.5847 17.8616C34.2251 19.0549 39.4356 22.0573 44.035 26.6567Z" stroke="white" stroke-width="3.33333"/>
</g>
</g>
<defs>
<linearGradient id="paint0_linear_18_199" x1="125.6" y1="-59.03" x2="-55.9389" y2="44.8461" gradientUnits="userSpaceOnUse">
<stop stop-color="#6857F6"/>
<stop offset="1" stop-color="white" stop-opacity="0"/>
</linearGradient>
<clipPath id="clip0_18_199">
<rect y="0.969971" width="70" height="70" rx="8" fill="white"/>
</clipPath>
<clipPath id="clip1_18_199">
<rect width="70" height="70" fill="white" transform="translate(0 0.969971)"/>
</clipPath>
<clipPath id="clip2_18_199">
<rect width="70" height="70" fill="white" transform="translate(0 0.969971)"/>
</clipPath>
<clipPath id="clip3_18_199">
<rect width="48.8889" height="50" fill="white" transform="translate(10.5557 10.97)"/>
</clipPath>
</defs>
</svg>
