<svg width="21" height="21" viewBox="0 0 21 21" fill="none" xmlns="http://www.w3.org/2000/svg">
<g clip-path="url(#clip0_78_365)">
<g clip-path="url(#clip1_78_365)">
<path d="M5.15999 10.1267V13.46M15.16 8.45999V11.7933M14.3266 4.29332C16.3672 4.29332 17.4709 4.60562 18.0201 4.84786C18.0932 4.88012 18.1298 4.89625 18.2353 4.99697C18.2986 5.05734 18.414 5.23448 18.4437 5.31673C18.4933 5.45394 18.4933 5.52894 18.4933 5.67894V14.6359C18.4933 15.3932 18.4933 15.7719 18.3797 15.9665C18.2642 16.1645 18.1528 16.2565 17.9366 16.3326C17.724 16.4074 17.2949 16.325 16.4368 16.1601C15.8361 16.0447 15.1237 15.96 14.3266 15.96C11.8266 15.96 9.32666 17.6266 5.99332 17.6266C3.95273 17.6266 2.84904 17.3143 2.29989 17.0721C2.22676 17.0399 2.19019 17.0237 2.08466 16.923C2.02139 16.8626 1.90592 16.6855 1.87621 16.6032C1.82666 16.466 1.82666 16.391 1.82666 16.241V7.28403C1.82666 6.52673 1.82666 6.14807 1.94022 5.95344C2.05574 5.75546 2.16715 5.66342 2.38337 5.58733C2.59594 5.51253 3.02502 5.59498 3.88318 5.75986C4.48384 5.87527 5.19622 5.95999 5.99332 5.95999C8.49332 5.95999 10.9933 4.29332 14.3266 4.29332ZM12.2433 10.96C12.2433 12.1106 11.3106 13.0433 10.16 13.0433C9.0094 13.0433 8.07666 12.1106 8.07666 10.96C8.07666 9.8094 9.0094 8.87666 10.16 8.87666C11.3106 8.87666 12.2433 9.8094 12.2433 10.96Z" stroke="white" stroke-width="1.5" stroke-linecap="round" stroke-linejoin="round"/>
</g>
</g>
<defs>
<clipPath id="clip0_78_365">
<rect width="20" height="20" fill="white" transform="translate(0.160156 0.960007)"/>
</clipPath>
<clipPath id="clip1_78_365">
<rect width="20" height="20" fill="white" transform="translate(0.160156 0.960007)"/>
</clipPath>
</defs>
</svg>
