<svg width="21" height="21" viewBox="0 0 21 21" fill="none" xmlns="http://www.w3.org/2000/svg">
<g clip-path="url(#clip0_78_359)">
<g clip-path="url(#clip1_78_359)">
<path d="M6.93184 12.0367C7.30188 13.4743 8.60696 14.5367 10.1602 14.5367C11.7134 14.5367 13.0185 13.4743 13.3885 12.0367M9.34157 2.67333L3.68965 7.06927C3.31184 7.36312 3.12294 7.51005 2.98685 7.69405C2.8663 7.85704 2.77649 8.04065 2.72185 8.23588C2.66016 8.45627 2.66016 8.69558 2.66016 9.17421V15.2033C2.66016 16.1367 2.66016 16.6035 2.84182 16.96C3.0016 17.2736 3.25657 17.5285 3.57018 17.6883C3.9267 17.87 4.39341 17.87 5.32683 17.87H14.9935C15.927 17.87 16.3937 17.87 16.7502 17.6883C17.0638 17.5285 17.3188 17.2736 17.4785 16.96C17.6602 16.6035 17.6602 16.1367 17.6602 15.2033V9.17421C17.6602 8.69558 17.6602 8.45627 17.5985 8.23588C17.5439 8.04065 17.4541 7.85704 17.3335 7.69405C17.1974 7.51005 17.0085 7.36312 16.6307 7.06927L10.9788 2.67333C10.686 2.44562 10.5396 2.33177 10.378 2.288C10.2354 2.24938 10.085 2.24938 9.94237 2.288C9.78073 2.33177 9.63434 2.44562 9.34157 2.67333Z" stroke="white" stroke-width="1.5" stroke-linecap="round" stroke-linejoin="round"/>
</g>
</g>
<defs>
<clipPath id="clip0_78_359">
<rect width="20" height="20" fill="white" transform="translate(0.160156 0.370003)"/>
</clipPath>
<clipPath id="clip1_78_359">
<rect width="20" height="20" fill="white" transform="translate(0.160156 0.370003)"/>
</clipPath>
</defs>
</svg>
