<svg width="18" height="18" viewBox="0 0 18 18" fill="none" xmlns="http://www.w3.org/2000/svg">
<path d="M9.15156 4.55786C11.6125 4.55786 13.6438 6.58911 13.6438 9.05005C13.6438 11.55 11.6125 13.5422 9.15156 13.5422C6.65156 13.5422 4.65938 11.55 4.65938 9.05005C4.65938 6.58911 6.65156 4.55786 9.15156 4.55786ZM9.15156 11.9797C10.7531 11.9797 12.0422 10.6907 12.0422 9.05005C12.0422 7.44849 10.7531 6.15942 9.15156 6.15942C7.51094 6.15942 6.22188 7.44849 6.22188 9.05005C6.22188 10.6907 7.55 11.9797 9.15156 11.9797ZM14.8547 4.40161C14.8547 4.98755 14.3859 5.4563 13.8 5.4563C13.2141 5.4563 12.7453 4.98755 12.7453 4.40161C12.7453 3.81567 13.2141 3.34692 13.8 3.34692C14.3859 3.34692 14.8547 3.81567 14.8547 4.40161ZM17.8234 5.4563C17.9016 6.90161 17.9016 11.2375 17.8234 12.6829C17.7453 14.0891 17.4328 15.3 16.4172 16.3547C15.4016 17.3704 14.1516 17.6829 12.7453 17.761C11.3 17.8391 6.96406 17.8391 5.51875 17.761C4.1125 17.6829 2.90156 17.3704 1.84688 16.3547C0.83125 15.3 0.51875 14.0891 0.440625 12.6829C0.3625 11.2375 0.3625 6.90161 0.440625 5.4563C0.51875 4.05005 0.83125 2.80005 1.84688 1.78442C2.90156 0.768799 4.1125 0.456299 5.51875 0.378174C6.96406 0.300049 11.3 0.300049 12.7453 0.378174C14.1516 0.456299 15.4016 0.768799 16.4172 1.78442C17.4328 2.80005 17.7453 4.05005 17.8234 5.4563ZM15.9484 14.2063C16.4172 13.0735 16.3 10.3391 16.3 9.05005C16.3 7.80005 16.4172 5.06567 15.9484 3.8938C15.6359 3.15161 15.05 2.52661 14.3078 2.25317C13.1359 1.78442 10.4016 1.90161 9.15156 1.90161C7.8625 1.90161 5.12813 1.78442 3.99531 2.25317C3.21406 2.56567 2.62813 3.15161 2.31563 3.8938C1.84688 5.06567 1.96406 7.80005 1.96406 9.05005C1.96406 10.3391 1.84688 13.0735 2.31563 14.2063C2.62813 14.9875 3.21406 15.5735 3.99531 15.886C5.12813 16.3547 7.8625 16.2375 9.15156 16.2375C10.4016 16.2375 13.1359 16.3547 14.3078 15.886C15.05 15.5735 15.675 14.9875 15.9484 14.2063Z" fill="white"/>
</svg>
