<svg width="18" height="18" viewBox="0 0 18 18" fill="none" xmlns="http://www.w3.org/2000/svg">
<path d="M16.6516 0.300049C17.3156 0.300049 17.9016 0.885986 17.9016 1.58911V16.55C17.9016 17.2532 17.3156 17.8 16.6516 17.8H1.6125C0.948438 17.8 0.401563 17.2532 0.401563 16.55V1.58911C0.401563 0.885986 0.948438 0.300049 1.6125 0.300049H16.6516ZM5.675 15.3V6.97974H3.09688V15.3H5.675ZM4.38594 5.80786C5.20625 5.80786 5.87031 5.1438 5.87031 4.32349C5.87031 3.50317 5.20625 2.80005 4.38594 2.80005C3.52656 2.80005 2.8625 3.50317 2.8625 4.32349C2.8625 5.1438 3.52656 5.80786 4.38594 5.80786ZM15.4016 15.3V10.7297C15.4016 8.50317 14.8938 6.74536 12.2766 6.74536C11.0266 6.74536 10.1672 7.44849 9.81563 8.11255H9.77656V6.97974H7.31563V15.3H9.89375V11.1985C9.89375 10.1047 10.0891 9.05005 11.4563 9.05005C12.7844 9.05005 12.7844 10.3 12.7844 11.2375V15.3H15.4016Z" fill="white"/>
</svg>
