<svg width="18" height="18" viewBox="0 0 18 18" fill="none" xmlns="http://www.w3.org/2000/svg">
<path d="M16.0266 0.300049C17.0422 0.300049 17.9016 1.15942 17.9016 2.17505V15.925C17.9016 16.9797 17.0422 17.8 16.0266 17.8H10.6359V11.8625H12.9016L13.3313 9.05005H10.6359V7.25317C10.6359 6.47192 11.0266 5.72974 12.2375 5.72974H13.4484V3.34692C13.4484 3.34692 12.3547 3.15161 11.2609 3.15161C9.07344 3.15161 7.62813 4.5188 7.62813 6.94067V9.05005H5.16719V11.8625H7.62813V17.8H2.27656C1.22188 17.8 0.401563 16.9797 0.401563 15.925V2.17505C0.401563 1.15942 1.22188 0.300049 2.27656 0.300049H16.0266Z" fill="white"/>
</svg>
