<svg width="22" height="16" viewBox="0 0 22 16" fill="none" xmlns="http://www.w3.org/2000/svg">
<path d="M21.3625 2.93286C21.8313 4.57349 21.8313 8.08911 21.8313 8.08911C21.8313 8.08911 21.8313 11.5657 21.3625 13.2454C21.1281 14.1829 20.3859 14.886 19.4875 15.1204C17.8078 15.55 11.1672 15.55 11.1672 15.55C11.1672 15.55 4.4875 15.55 2.80781 15.1204C1.90938 14.886 1.16719 14.1829 0.932813 13.2454C0.464063 11.5657 0.464063 8.08911 0.464063 8.08911C0.464063 8.08911 0.464063 4.57349 0.932813 2.93286C1.16719 1.99536 1.90938 1.25317 2.80781 1.0188C4.4875 0.550049 11.1672 0.550049 11.1672 0.550049C11.1672 0.550049 17.8078 0.550049 19.4875 1.0188C20.3859 1.25317 21.1281 1.99536 21.3625 2.93286ZM8.97969 11.2532L14.5266 8.08911L8.97969 4.92505V11.2532Z" fill="white"/>
</svg>
