<svg width="70" height="71" viewBox="0 0 70 71" fill="none" xmlns="http://www.w3.org/2000/svg">
<g clip-path="url(#clip0_18_286)">
<g clip-path="url(#clip1_18_286)">
<g clip-path="url(#clip2_18_286)">
<path d="M11.2001 1.66992H58.8C64.599 1.66992 69.3 6.37093 69.3 12.1699V59.7699C69.3 65.5689 64.599 70.2699 58.8 70.2699H11.2001C5.40106 70.2699 0.70005 65.5689 0.70005 59.7699V12.1699C0.70005 6.37093 5.40106 1.66992 11.2001 1.66992Z" fill="#17191F" stroke="url(#paint0_linear_18_286)" stroke-width="1.4"/>
</g>
</g>
<g clip-path="url(#clip3_18_286)">
<path d="M26.7932 30.7992C33.3397 27.6683 38.463 22.3552 41.4042 15.7138C39.5066 13.7214 37.0399 12.2982 34.3833 11.4444L32.9601 10.97C32.8652 11.1597 32.7703 11.4444 32.7703 11.6341C30.4934 18.0857 25.8444 23.3039 19.5825 26.2451C15.2182 28.3324 11.9924 32.1275 10.4744 36.6816L10 38.1047C10.1898 38.1995 10.4744 38.2944 10.6641 38.2944C12.4668 38.9586 14.2695 39.8125 15.9772 40.8561C18.3491 36.5867 22.1442 32.9813 26.7932 30.7992Z" fill="#087443"/>
<path d="M54.3073 31.1787C50.7968 36.4918 45.9581 40.7612 39.9809 43.6076C35.1422 45.8846 31.4419 50.1541 29.7342 55.2773L29.2598 56.8903C31.0625 58.5031 33.2447 59.7365 35.6166 60.4956L37.0397 60.97C37.1345 60.7802 37.2294 60.4956 37.2294 60.3059C39.5065 53.8543 44.1554 48.636 50.4173 45.6948C54.7816 43.6076 58.1023 39.8125 59.5254 35.2584L59.9999 33.8353C58.0074 33.266 56.1099 32.3172 54.3073 31.1787Z" fill="#16B364"/>
<path d="M25.4649 51.9567C27.8369 46.2641 32.2012 41.6151 37.7989 38.9587C42.9222 36.4918 47.1918 32.6967 50.1329 28.0479C47.9507 25.9605 46.148 23.5887 44.8198 20.7423C41.3094 27.1939 35.8065 32.4122 29.0703 35.638C25.1803 37.4406 22.0494 40.5715 20.1519 44.3666C22.2391 46.359 23.947 48.8258 25.2752 51.5772C25.2752 51.5772 25.37 51.767 25.4649 51.9567Z" fill="#099250"/>
</g>
</g>
<defs>
<linearGradient id="paint0_linear_18_286" x1="125.6" y1="-59.03" x2="-55.9389" y2="44.8461" gradientUnits="userSpaceOnUse">
<stop stop-color="#6857F6"/>
<stop offset="1" stop-color="white" stop-opacity="0"/>
</linearGradient>
<clipPath id="clip0_18_286">
<rect y="0.969971" width="70" height="70" rx="8" fill="white"/>
</clipPath>
<clipPath id="clip1_18_286">
<rect width="70" height="70" fill="white" transform="translate(0 0.969971)"/>
</clipPath>
<clipPath id="clip2_18_286">
<rect width="70" height="70" fill="white" transform="translate(0 0.969971)"/>
</clipPath>
<clipPath id="clip3_18_286">
<rect width="50" height="50" fill="white" transform="translate(10 10.97)"/>
</clipPath>
</defs>
</svg>
