<svg width="48" height="49" viewBox="0 0 48 49" fill="none" xmlns="http://www.w3.org/2000/svg">
<rect y="0.550049" width="48" height="48" rx="24" fill="#0D0E11"/>
<path d="M34.3625 18.9329C34.8313 20.5735 34.8313 24.0891 34.8313 24.0891C34.8313 24.0891 34.8313 27.5657 34.3625 29.2454C34.1281 30.1829 33.3859 30.886 32.4875 31.1204C30.8078 31.55 24.1672 31.55 24.1672 31.55C24.1672 31.55 17.4875 31.55 15.8078 31.1204C14.9094 30.886 14.1672 30.1829 13.9328 29.2454C13.4641 27.5657 13.4641 24.0891 13.4641 24.0891C13.4641 24.0891 13.4641 20.5735 13.9328 18.9329C14.1672 17.9954 14.9094 17.2532 15.8078 17.0188C17.4875 16.55 24.1672 16.55 24.1672 16.55C24.1672 16.55 30.8078 16.55 32.4875 17.0188C33.3859 17.2532 34.1281 17.9954 34.3625 18.9329ZM21.9797 27.2532L27.5266 24.0891L21.9797 20.925V27.2532Z" fill="white"/>
</svg>
